<svg class="svg-icon" style="width: 1em;height: 1em;vertical-align: middle;fill: currentColor;overflow: hidden;" viewBox="0 0 1024 1024" version="1.1" xmlns="http://www.w3.org/2000/svg"><path d="M814.08 118.528H191.488a76.8 76.8 0 0 0-76.8 76.8V819.2a76.8 76.8 0 0 0 76.8 76.8H814.08a76.8 76.8 0 0 0 76.8-76.8V195.328a76.8 76.8 0 0 0-76.8-76.8z m25.6 700.672a25.6 25.6 0 0 1-25.6 25.6H191.488a25.6 25.6 0 0 1-25.6-25.6V195.328a25.6 25.6 0 0 1 25.6-25.6H814.08a25.6 25.6 0 0 1 25.6 25.6z"  /><path d="M742.4 667.904H262.144a25.6 25.6 0 1 0 0 51.2H742.4a25.6 25.6 0 0 0 0-51.2zM742.4 550.4h-215.552a25.6 25.6 0 0 0 0 51.2H742.4a25.6 25.6 0 0 0 0-51.2zM742.4 432.64h-97.792a25.6 25.6 0 0 0 0 51.2H742.4a25.6 25.6 0 0 0 0-51.2zM742.4 315.136h-97.792a25.6 25.6 0 0 0 0 51.2H742.4a25.6 25.6 0 0 0 0-51.2zM265.472 392.448a25.6 25.6 0 0 0 25.6-25.6H358.4v183.552h-20.224a25.6 25.6 0 0 0 0 51.2h91.648a25.6 25.6 0 0 0 0-51.2H409.6v-184.064h66.048a25.6 25.6 0 0 0 51.2 0v-25.6a25.6 25.6 0 0 0-25.6-25.6h-235.776a25.6 25.6 0 0 0-25.6 25.6v25.6a25.6 25.6 0 0 0 25.6 26.112z"  /></svg>