<svg class="svg-icon" style="width: 1em; height: 1em;vertical-align: middle;fill: currentColor;overflow: hidden;" viewBox="0 0 1024 1024" version="1.1" xmlns="http://www.w3.org/2000/svg"><path d="M839.317 127.245H704.872v-6.489c0-31.466-25.513-56.978-56.979-56.978H377.022c-31.465 0-56.978 25.512-56.978 56.978v6.489H185.599c-31.466 0-56.978 25.512-56.978 56.978v719.184c0 31.467 25.512 55.979 56.978 55.979h454.295l256.401-255.401V184.223c0-31.466-25.512-56.978-56.978-56.978z m-455.295 0.511h255.871v63.957H384.022v-63.957z m-192.423 62.467h128.446v8.49c0 31.465 25.513 56.978 56.978 56.978h270.871c31.466 0 56.979-25.513 56.979-56.978v-8.49h127.445v448.783H639.894s-62.979 8-62.979 64.979v191.423H191.599V190.223z m612.099 513.761L639.894 867.047V703.984h163.804z"  /><path d="M480.643 582.907c12.888 12.887 13.226 33.443 0.755 45.914l-0.096 0.096c-12.471 12.471-33.026 12.132-45.914-0.755L296.245 489.02c-12.887-12.888-13.226-33.443-0.755-45.914l0.096-0.096c12.471-12.471 33.027-12.133 45.914 0.755l139.143 139.142z"  /><path d="M482.022 628.162c-12.888 12.888-33.444 13.226-45.915 0.755l-0.096-0.096c-12.471-12.471-12.132-33.026 0.756-45.913l247.329-247.33c12.888-12.887 33.442-13.227 45.914-0.755l0.095 0.095c12.472 12.471 12.134 33.027-0.754 45.915L482.022 628.162z"  /></svg>