<?xml version="1.0" encoding="iso-8859-1"?>
<!-- Generator: Adobe Illustrator 16.0.0, SVG Export Plug-In . SVG Version: 6.00 Build 0)  -->
<!DOCTYPE svg PUBLIC "-//W3C//DTD SVG 1.1//EN" "http://www.w3.org/Graphics/SVG/1.1/DTD/svg11.dtd">
<svg version="1.1" id="Capa_1" xmlns="http://www.w3.org/2000/svg" xmlns:xlink="http://www.w3.org/1999/xlink" x="0px" y="0px"
	 width="243.962px" height="243.962px" viewBox="0 0 243.962 243.962" style="enable-background:new 0 0 243.962 243.962;"
	 xml:space="preserve">
<g>
	<path d="M243.63,44.452c-1.46-7.007-7.312-12.354-16.479-15.046c-6.696-1.962-14.735-2.281-22.969-1.114l-15.581-15.566
		l-64.256,4.888L0,141.947l89.294,89.288l124.345-124.339l2.459-32.465c10.977-3.408,19.907-9.248,24.512-16.281
		C243.523,53.699,244.563,48.962,243.63,44.452z M89.294,214.117l-72.179-72.17L129.724,29.332l54.255-4.119l22.047,22.056
		l-1.324,17.401c-4.421,0.718-8.771,0.896-12.737,0.52c2.394-7.161,0.821-15.356-4.864-21.057c-7.749-7.755-21.279-7.767-29.058,0
		c-3.89,3.893-6.018,9.041-6.018,14.526c0,5.476,2.141,10.645,6.029,14.526c3.878,3.88,9.031,6.005,14.511,6.005
		c3.96,0,7.737-1.144,11-3.227c3.878,1.005,8.109,1.587,12.602,1.587c2.471,0,5.013-0.189,7.59-0.497l-1.868,24.447L89.294,214.117z
		 M165.791,60.65c0.349,1.626,0.939,3.153,1.737,4.587c-0.295-0.219-0.655-0.34-0.916-0.606c-1.607-1.599-2.471-3.709-2.471-5.967
		c0-1.824,0.697-3.47,1.762-4.915C165.383,56.043,165.324,58.354,165.791,60.65z M177.654,58.168
		c-0.29-1.327,0.283-2.955,1.418-4.667c1.88,2.379,2.388,5.447,1.359,8.183C178.901,60.624,177.914,59.421,177.654,58.168z
		 M230.484,51.51c-2.424,3.703-7.306,7.143-13.382,9.685l1.418-18.545l-2.854-2.846c2.902,0.148,5.669,0.508,8.057,1.211
		c4.545,1.342,7.554,3.547,8.044,5.914C232.051,48.241,231.613,49.787,230.484,51.51z M68.122,140.812l29.113,29.093l-3.679,3.677
		l-3.706,3.711l-29.102-29.098l-10.693,10.674l-3.129-3.114l-3.154-3.156l28.762-28.762l3.135,3.139l3.154,3.15L68.122,140.812z
		 M86.037,110.336l-4.291,4.279l22.859,47.889l3.833-3.83l3.806-3.795l-4.891-9.517l13.432-13.417l9.588,4.8l3.906-3.913
		l3.919-3.913l-47.895-22.857L86.037,110.336z M103.329,137.219l-9.508-18.9l18.903,9.513L103.329,137.219z M150.328,78.584
		l19.086,19.071l-4.93,4.938l-5.296-3.86l0.143,1.005c0.839,5.816-0.881,10.829-5.119,15.082
		c-5.154,5.133-10.899,7.563-17.236,7.267c-6.348-0.295-12.359-3.283-18.024-8.949c-5.769-5.769-8.783-11.937-9.032-18.468
		c-0.254-6.546,2.308-12.486,7.664-17.848c4.303-4.303,8.916-6.773,13.854-7.409c4.924-0.629,9.451,0.636,13.589,3.851l-7.4,7.388
		c-1.726-1.348-3.942-1.832-6.655-1.451c-2.716,0.376-4.986,1.502-6.856,3.357c-3.216,3.216-4.619,6.848-4.206,10.891
		c0.399,4.031,2.589,8.012,6.534,11.979c4.001,4.004,7.932,6.18,11.762,6.534c3.824,0.357,7.425-1.135,10.77-4.489
		c2.855-2.852,3.984-6.168,3.405-9.963c-0.355-2.119-1.147-4.214-2.4-6.301l-0.059-0.059l-8.322,8.322l-6.095-6.091L150.328,78.584z
		 M154.235,114.826c-0.012,0.006-0.012,0.006-0.012,0.012c-0.012,0.015-0.012,0.015-0.012,0.015L154.235,114.826z"/>
</g>
<g>
</g>
<g>
</g>
<g>
</g>
<g>
</g>
<g>
</g>
<g>
</g>
<g>
</g>
<g>
</g>
<g>
</g>
<g>
</g>
<g>
</g>
<g>
</g>
<g>
</g>
<g>
</g>
<g>
</g>
</svg>
