<svg class="svg-icon" style="width: 1em;height: 1em;vertical-align: middle;fill: currentColor;overflow: hidden;" viewBox="0 0 1024 1024" version="1.1" xmlns="http://www.w3.org/2000/svg"><path d="M913.92 1016.32H354.56a31.36 31.36 0 0 1 0-64h559.36a31.36 31.36 0 0 0 31.36-31.36V569.6a31.36 31.36 0 0 1 64 0v352.64a94.08 94.08 0 0 1-95.36 94.08z" fill="#323333" /><path d="M761.6 844.8H113.28A94.08 94.08 0 0 1 19.2 750.72V103.04A94.08 94.08 0 0 1 113.28 8.96h547.84a31.36 31.36 0 1 1 0 64H113.28a31.36 31.36 0 0 0-31.36 31.36v646.4a31.36 31.36 0 0 0 31.36 31.36H761.6a31.36 31.36 0 0 0 30.72-31.36V569.6a32 32 0 0 1 64 0v181.12a94.08 94.08 0 0 1-94.72 94.08z" fill="#323333" /><path d="M913.92 1016.32H301.44a31.36 31.36 0 0 1 0-64h612.48a31.36 31.36 0 0 0 31.36-31.36V569.6a31.36 31.36 0 0 1 64 0v352.64a94.08 94.08 0 0 1-95.36 94.08zM482.56 581.76a30.72 30.72 0 0 1-22.4-10.24L245.12 344.32a31.36 31.36 0 0 1 0-44.16 30.72 30.72 0 0 1 44.16 0l192 203.52L960 29.44a31.36 31.36 0 0 1 44.16 0 30.08 30.08 0 0 1 0 44.16L504.32 572.16a28.8 28.8 0 0 1-21.76 9.6z" fill="#323333" /></svg>