<svg class="svg-icon" style="width: 1em;height: 1em;vertical-align: middle;fill: currentColor;overflow: hidden;" viewBox="0 0 1024 1024" version="1.1" xmlns="http://www.w3.org/2000/svg"><path d="M486.400051 1023.997952c-129.94534 0-252.057096-50.585499-343.960912-142.438115S0.001024 667.544265 0.001024 537.650125c0-129.94534 50.585499-252.057096 142.438115-343.960912S356.454711 51.199898 486.400051 51.199898c129.94534 0 252.057096 50.585499 343.960912 142.489315S972.799078 407.704785 972.799078 537.650125s-50.585499 252.057096-142.438115 343.909712A483.224634 483.224634 0 0 1 486.400051 1023.997952z m0-921.598157C246.426131 102.399795 51.200922 297.625005 51.200922 537.598925S246.426131 972.798054 486.400051 972.798054s435.19913-195.22521 435.19913-435.199129S726.373971 102.399795 486.400051 102.399795z"  /><path d="M384.000256 742.398515a25.702349 25.702349 0 0 1-18.124764-7.475185l-153.599693-153.599693a25.599949 25.599949 0 0 1 36.198328-36.198327l135.474929 135.474929 340.27452-340.27452a25.599949 25.599949 0 0 1 36.198327 36.198328l-358.399283 358.399283a25.497549 25.497549 0 0 1-18.124764 7.475185z"  /></svg>